<svg id="visual" viewBox="0 0 900 600" width="900" height="600" xmlns="http://www.w3.org/2000/svg" xmlns:xlink="http://www.w3.org/1999/xlink" version="1.1"><rect x="0" y="0" width="900" height="600" fill="#001220"></rect><path d="M0 379L21.5 379.2C43 379.3 86 379.7 128.8 385.2C171.7 390.7 214.3 401.3 257.2 408.3C300 415.3 343 418.7 385.8 418.8C428.7 419 471.3 416 514.2 410.7C557 405.3 600 397.7 642.8 392.3C685.7 387 728.3 384 771.2 388.7C814 393.3 857 405.7 878.5 411.8L900 418L900 601L878.5 601C857 601 814 601 771.2 601C728.3 601 685.7 601 642.8 601C600 601 557 601 514.2 601C471.3 601 428.7 601 385.8 601C343 601 300 601 257.2 601C214.3 601 171.7 601 128.8 601C86 601 43 601 21.5 601L0 601Z" fill="#fa7268"></path><path d="M0 522L21.5 519.7C43 517.3 86 512.7 128.8 511.8C171.7 511 214.3 514 257.2 510.8C300 507.7 343 498.3 385.8 492.5C428.7 486.7 471.3 484.3 514.2 483.7C557 483 600 484 642.8 483.8C685.7 483.7 728.3 482.3 771.2 485C814 487.7 857 494.3 878.5 497.7L900 501L900 601L878.5 601C857 601 814 601 771.2 601C728.3 601 685.7 601 642.8 601C600 601 557 601 514.2 601C471.3 601 428.7 601 385.8 601C343 601 300 601 257.2 601C214.3 601 171.7 601 128.8 601C86 601 43 601 21.5 601L0 601Z" fill="#c62368"></path></svg>