<svg id="visual" viewBox="0 0 900 600" width="900" height="600" xmlns="http://www.w3.org/2000/svg" xmlns:xlink="http://www.w3.org/1999/xlink" version="1.1"><rect x="0" y="0" width="900" height="600" fill="#002233"></rect><path d="M0 470L21.5 458.2C43 446.3 86 422.7 128.8 415C171.7 407.3 214.3 415.7 257.2 428.2C300 440.7 343 457.3 385.8 449.7C428.7 442 471.3 410 514.2 417.3C557 424.7 600 471.3 642.8 494C685.7 516.7 728.3 515.3 771.2 510C814 504.7 857 495.3 878.5 490.7L900 486L900 601L878.5 601C857 601 814 601 771.2 601C728.3 601 685.7 601 642.8 601C600 601 557 601 514.2 601C471.3 601 428.7 601 385.8 601C343 601 300 601 257.2 601C214.3 601 171.7 601 128.8 601C86 601 43 601 21.5 601L0 601Z" fill="#0066FF" stroke-linecap="round" stroke-linejoin="miter"></path></svg>